<svg width="414" height="313" viewBox="0 0 414 313" fill="none" xmlns="http://www.w3.org/2000/svg">
<g clip-path="url(#clip0_445_38)">
<path d="M269.906 128.437C269.002 128.568 268.08 128.498 267.205 128.234C266.33 127.97 265.524 127.517 264.843 126.908C264.162 126.298 263.623 125.547 263.263 124.707C262.904 123.866 262.733 122.958 262.763 122.044L242.025 114.075L251.415 107.358L269.668 115.956C271.2 116.108 272.622 116.816 273.666 117.947C274.71 119.078 275.303 120.552 275.332 122.091C275.362 123.63 274.825 125.126 273.825 126.296C272.825 127.465 271.43 128.227 269.906 128.437L269.906 128.437Z" fill="#FFB7B7"/>
<path d="M258.056 122.72L261.294 111.298L261.135 111.19L230.804 90.5862L204.585 64.2786L189.312 70.3806L190.315 75.2147L190.381 75.274L225.24 106.497L225.272 106.513L258.056 122.72Z" fill="#E6E7E8"/>
<path d="M226.984 148.809L180.044 142.229L184.175 113.426H218.733L226.984 148.809Z" fill="#FFB6B6"/>
<path d="M147.225 289.848L156.854 292.086L170.067 256.011L155.856 252.708L147.225 289.848Z" fill="#FFB6B6"/>
<path d="M138.266 305.351L145.171 306.956L147.919 300.723L149.561 307.976L167.875 312.232C168.753 312.436 169.673 312.354 170.501 311.998C171.329 311.642 172.022 311.031 172.478 310.253C172.934 309.476 173.129 308.573 173.036 307.677C172.942 306.78 172.565 305.937 171.958 305.27L159.68 291.771L161.212 285.18L145.615 282.523L138.266 305.351Z" fill="#2F2E41"/>
<path d="M206.639 295.214H216.524L221.229 257.084H206.639V295.214Z" fill="#FFB6B6"/>
<path d="M201.421 312.342H208.51L209.776 305.649L213.017 312.342H231.819C232.72 312.342 233.598 312.054 234.324 311.52C235.05 310.986 235.586 310.234 235.854 309.373C236.123 308.513 236.109 307.589 235.815 306.737C235.521 305.885 234.962 305.149 234.221 304.637L219.206 294.267V287.501L203.412 288.444L201.421 312.342Z" fill="#2F2E41"/>
<path d="M179.45 137.342L225.356 133.69C238.902 165.334 230.289 215.849 219.879 272.715L205.113 274.624L203.968 183.247L166.954 268.255L151.565 267.469L179.45 137.342Z" fill="#2F2E41"/>
<path d="M206.171 54.0149V38.4844C206.173 35.7506 205.636 33.0434 204.59 30.5173C203.545 27.9912 202.012 25.6959 200.08 23.7623C198.147 21.8288 195.853 20.2949 193.327 19.2484C190.802 18.202 188.095 17.6633 185.361 17.6633C182.627 17.6633 179.92 18.202 177.395 19.2484C174.869 20.2949 172.574 21.8288 170.642 23.7623C168.709 25.6959 167.177 27.9912 166.131 30.5173C165.086 33.0434 164.549 35.7506 164.55 38.4844C160.882 46.1276 163.177 49.7614 164.55 54.0149C164.551 54.7556 164.846 55.4656 165.37 55.9893C165.894 56.5131 166.604 56.8078 167.344 56.8091H203.376C204.117 56.8082 204.827 56.5136 205.351 55.9898C205.875 55.466 206.17 54.7558 206.171 54.0149Z" fill="#2F2E41"/>
<path d="M190.497 56.5751C198.923 56.5751 205.754 49.744 205.754 41.3173C205.754 32.8907 198.923 26.0596 190.497 26.0596C182.07 26.0596 175.239 32.8907 175.239 41.3173C175.239 49.744 182.07 56.5751 190.497 56.5751Z" fill="#FFB7B7"/>
<path d="M211.095 39.7266C211.09 35.3621 209.354 31.1778 206.268 28.0917C203.181 25.0055 198.997 23.2696 194.633 23.2646H191.526C187.162 23.2696 182.978 25.0055 179.891 28.0917C176.805 31.1778 175.069 35.3621 175.064 39.7266V40.0373C177.391 41.6277 179.599 41.8603 181.629 40.0373L183.867 33.7682L184.315 40.0373H187.708L188.839 36.8745L189.065 40.0373C193.648 43.9402 202.314 42.0699 211.095 40.0373L211.095 39.7266Z" fill="#2F2E41"/>
<path d="M181.6 121.845L220.447 120.366L222.619 94.9523C224.293 90.3006 224.32 86.3035 222.699 83.0809C221.305 80.4319 218.962 78.4069 216.139 77.4106L207.638 67.1439C206.545 65.8243 205.172 64.7642 203.619 64.04C202.065 63.3158 200.371 62.9458 198.657 62.9565L176.569 63.1076C176.037 62.7876 172.808 61.1463 166.439 63.9059C159.531 66.8997 161.135 77.3009 161.152 77.4053L161.168 77.5031L161.244 77.5696L175.935 89.944L181.6 121.845Z" fill="#E6E7E8"/>
<path d="M0.651775 312.994H390.711C390.884 312.994 391.049 312.925 391.172 312.803C391.294 312.681 391.362 312.515 391.362 312.342C391.362 312.169 391.294 312.004 391.172 311.881C391.049 311.759 390.884 311.69 390.711 311.69H0.651775C0.478915 311.69 0.313136 311.759 0.190905 311.881C0.0686746 312.004 0 312.169 0 312.342C0 312.515 0.0686746 312.681 0.190905 312.803C0.313136 312.925 0.478915 312.994 0.651775 312.994Z" fill="#CCCCCC"/>
<path d="M284.66 158.732C284.631 173.538 279.064 187.797 269.055 198.706C259.046 209.615 245.318 216.386 230.57 217.686C215.822 218.987 201.121 214.724 189.357 205.735C177.592 196.746 169.616 183.681 166.996 169.109C164.377 154.538 167.302 139.513 175.198 126.989C183.095 114.465 195.39 105.348 209.668 101.43C223.945 97.5123 239.172 99.0769 252.354 105.816C265.537 112.556 275.721 123.983 280.905 137.851C281.035 138.199 281.161 138.547 281.283 138.899V138.902C281.831 140.448 282.313 142.022 282.73 143.625C284.015 148.558 284.664 153.635 284.66 158.732Z" fill="#3F3D56"/>
<path d="M218.429 118.454C215.746 117.003 212.767 116.184 209.72 116.059C206.672 115.935 203.637 116.508 200.844 117.735C198.386 118.805 195.797 120.724 194.977 124.19C198.294 122.232 202.588 125.326 203.441 130.288L203.242 130.343C202.791 133.78 203.798 137.522 205.746 139.653C205.891 138.691 206.249 137.774 206.792 136.968C207.336 136.161 208.052 135.486 208.889 134.991C210.321 134.05 211.905 133.367 212.998 131.749C214.293 129.831 214.622 127.028 215.137 124.471C215.651 121.915 216.627 119.166 218.429 118.454Z" fill="#00B0FF"/>
<path d="M349.861 190.404C348.942 191.783 347.715 192.649 346.614 193.727C345.343 194.883 344.509 196.442 344.252 198.141C344.113 199.342 344.329 200.562 344.299 201.776C344.269 202.99 343.864 204.357 343.038 204.658C341.735 205.129 340.74 202.708 339.4 202.539C338.335 202.407 337.377 204.081 337.685 205.534C337.994 206.987 339.443 207.63 340.276 206.682C341.029 207.945 340.498 210.237 339.367 210.625C339.247 211.421 339.128 212.214 339.012 213.01C336.153 211.01 333.264 208.977 330.833 206.048C328.129 202.819 326.452 198.855 326.017 194.666C325.702 191.299 326.17 187.449 324.625 184.858C323.387 182.785 321.265 182.328 319.354 182.457C319.006 182.48 318.655 182.52 318.306 182.563C319.433 179.179 320.864 175.905 322.581 172.779C322.97 172.612 323.331 172.387 323.653 172.112C325.43 170.603 326.22 167.549 327.662 165.436C327.755 165.3 327.852 165.167 327.951 165.038C329.427 163.111 331.404 162.119 333.314 161.197C337.543 159.144 341.894 157.065 346.358 157.35L345.088 157.473C343.605 161.625 342.122 165.778 340.637 169.93C340.412 170.567 340.184 171.205 339.954 171.844C339.111 174.205 338.242 176.719 338.372 179.363C338.448 180.928 338.992 182.6 340.027 183.137C340.992 183.634 342.047 183.024 342.979 182.42C343.373 182.168 343.765 181.916 344.159 181.661C345.576 180.749 347.144 179.814 348.64 180.424C350.01 180.981 351.021 182.842 351.214 184.848C351.39 186.799 350.914 188.753 349.861 190.404Z" fill="#00B0FF"/>
<path d="M208.283 176.051C204.147 173.504 200.011 170.957 195.875 168.411L195.945 168.23C193.373 169.209 192.305 173.781 192.73 177.519C193.155 181.257 194.597 184.599 195.325 188.242C196.306 193.227 195.936 198.383 194.252 203.176C199.69 197.074 204.504 190.441 208.619 183.378C209.194 182.488 209.632 181.517 209.919 180.496C210.222 179.409 210.114 178.248 209.615 177.236C209.276 176.736 208.819 176.329 208.283 176.051Z" fill="#00B0FF"/>
<path d="M191.959 129.719C191.473 130.762 191.399 131.95 191.75 133.045C192.158 133.928 192.898 134.613 193.809 134.953L196.095 136.086C196.855 136.463 197.675 136.843 198.45 136.533C199.384 136.159 200.033 134.694 199.865 133.333C199.687 131.885 198.774 130.889 197.93 130.041C196.749 128.854 195.567 127.667 194.386 126.48L193.721 127.296C193.001 127.998 192.405 128.817 191.959 129.719Z" fill="#00B0FF"/>
<path d="M272.408 145.197C273.436 145.439 274.465 145.681 275.493 145.924C275.314 149.396 273.592 152.61 271.284 153.774C270.322 154.258 269.251 154.437 268.455 155.343C267.735 156.165 267.37 157.445 267.035 158.669C266.448 160.805 265.861 162.941 265.274 165.077C264.644 167.379 263.835 169.936 262.196 170.765C260.79 171.478 259.181 170.606 258.1 169.143C257.019 167.681 256.359 165.714 255.719 163.797C255.759 165.886 254.787 167.936 253.411 168.662C252.031 169.389 250.353 168.732 249.431 167.11C248.767 165.946 248.492 164.41 247.842 163.23C247.192 162.049 245.829 161.372 245.119 162.48C244.651 163.216 244.711 164.344 244.479 165.279C244.362 165.9 244.054 166.469 243.599 166.907C243.144 167.346 242.563 167.631 241.938 167.724C241.364 167.711 240.798 167.581 240.275 167.342C239.752 167.103 239.283 166.76 238.897 166.334C236.866 164.256 235.544 161.59 235.119 158.716C234.832 157.338 234.868 155.912 235.226 154.55C235.633 153.26 236.618 152.265 237.597 152.51C238.24 151.15 236.97 149.346 235.826 149.505C234.678 149.665 233.779 150.895 232.838 151.84C231.899 152.786 230.586 153.472 229.64 152.534C229.661 152.877 229.545 153.215 229.318 153.472C229.09 153.73 228.769 153.887 228.426 153.908C228.392 153.91 228.358 153.911 228.324 153.91C227.695 153.73 227.111 153.42 226.609 153.001C224.443 151.651 221.694 152.547 220.155 155.101C221.117 151.008 222.526 146.312 225.481 145.35C226.689 144.955 228.005 145.28 229.146 144.597C231.166 143.386 231.574 138.813 229.829 136.926C230.052 138.71 230.009 140.793 229.067 142.013C228.125 143.234 226.148 142.438 226.267 140.634C226.241 140.887 226.134 141.126 225.963 141.316C225.792 141.505 225.566 141.636 225.316 141.689C225.067 141.742 224.807 141.715 224.574 141.611C224.341 141.507 224.146 141.332 224.019 141.111C223.392 140.156 223.445 138.594 223.889 137.453C224.348 136.42 225.005 135.486 225.823 134.707C227.398 133.019 228.997 131.31 230.821 130.249C232.649 129.188 234.758 128.83 236.589 129.884C237.554 130.442 238.403 131.37 239.388 131.861C239.619 132.005 239.877 132.101 240.146 132.145C240.415 132.19 240.689 132.18 240.955 132.118C241.22 132.056 241.47 131.942 241.692 131.783C241.913 131.625 242.101 131.424 242.244 131.192C242.255 131.174 242.266 131.156 242.277 131.138C243.01 129.851 242.665 127.941 242.937 126.332C243.424 123.49 246.267 122.16 247.842 124.037C246.665 123.735 245.447 125.128 245.301 126.816C245.152 128.505 246.005 130.209 247.146 130.72C249.063 131.569 250.94 129.433 252.389 127.457C253.901 125.387 255.416 123.319 256.933 121.251C257.175 120.899 257.447 120.569 257.745 120.263C258.22 119.8 258.854 119.535 259.517 119.521C260.18 119.508 260.824 119.747 261.317 120.19C262.85 121.44 263.569 124.004 264.826 125.768C266.651 128.332 269.38 128.956 271.921 129.453C273.814 129.821 275.709 130.192 277.605 130.564C278.869 132.916 279.972 135.35 280.905 137.851C277.429 139.436 274.479 141.986 272.408 145.197Z" fill="#00B0FF"/>
<path d="M282.73 143.625C282.341 144.77 282.129 145.968 282.099 147.177C280.474 145.194 280.216 141.476 281.284 138.902C281.831 140.448 282.313 142.022 282.73 143.625Z" fill="#00B0FF"/>
<path d="M278.531 185.103C277.11 187.988 275.457 190.753 273.589 193.371C272.395 192.86 271.111 193.772 269.994 194.628C268.826 195.524 267.423 196.396 266.226 195.58C265.002 194.744 264.607 192.406 264.996 190.552C265.442 188.842 266.222 187.237 267.291 185.829C268.286 184.343 269.35 182.801 270.733 182.224C272.12 181.647 273.901 182.463 274.305 184.433L275.287 184.4C274.736 183.644 275.025 182.078 275.765 181.803C276.617 181.481 277.357 182.652 277.861 183.687C278.086 184.154 278.315 184.625 278.531 185.103Z" fill="#00B0FF"/>
<path d="M240.932 171.094C238.821 171.226 237.15 168.629 236.039 166.073C234.929 163.518 233.915 160.595 232.011 159.294C230.923 158.551 229.683 158.449 228.503 158.089C227.834 157.92 227.214 157.594 226.696 157.138C226.178 156.681 225.776 156.108 225.523 155.466L224.185 154.925C222.313 155.861 220.598 157.084 219.103 158.549C217.394 160.364 216.33 162.69 216.075 165.169C215.819 167.848 216.763 170.836 218.527 171.842C219.921 172.638 221.544 172.136 222.956 172.865C224.721 173.774 225.768 176.417 226.165 179.026C226.561 181.635 226.461 184.346 226.744 186.985C227.028 189.623 227.81 192.369 229.428 193.721C231.452 195.413 234.423 194.007 235.332 190.927C235.777 189.416 235.762 187.711 236.095 186.143C236.682 183.381 238.266 181.331 239.522 179.066C240.778 176.8 241.767 173.723 240.932 171.094Z" fill="#00B0FF"/>
<path d="M220.08 143.953C220.277 144.134 220.461 144.329 220.63 144.537C220.805 144.838 220.894 145.182 220.888 145.531C220.882 145.88 220.781 146.22 220.596 146.516C220.85 146.501 221.098 146.434 221.325 146.319C221.552 146.204 221.753 146.042 221.914 145.846C222.3 145.407 222.638 144.93 222.925 144.421C223.06 144.247 223.157 144.047 223.208 143.832C223.26 143.618 223.265 143.396 223.224 143.179C223.124 142.895 222.888 142.773 222.723 142.559C222.494 142.141 222.337 141.687 222.26 141.216C222.169 140.775 221.956 140.368 221.646 140.041C221.336 139.714 220.941 139.481 220.505 139.366L220.611 139.386C220.431 139.493 220.288 139.653 220.204 139.845C220.12 140.037 220.098 140.25 220.141 140.455C220.205 140.869 220.471 141.212 220.444 141.634C220.406 142.241 219.8 142.526 219.762 143.133C219.756 143.438 219.87 143.732 220.08 143.953Z" fill="#00B0FF"/>
<path d="M216.465 133.638L216.474 133.637C216.539 133.577 216.599 133.513 216.654 133.445L216.465 133.638Z" fill="#00B0FF"/>
<path d="M217.098 136.488C217.351 136.265 217.538 135.977 217.64 135.656C217.741 135.334 217.751 134.991 217.67 134.663C217.517 133.973 216.975 133.509 216.474 133.637C216.329 133.784 216.149 133.892 215.95 133.95C215.752 134.008 215.542 134.015 215.34 133.97C215.031 133.891 214.691 133.686 214.423 133.919C214.27 134.093 214.162 134.303 214.111 134.529C214.011 134.834 213.912 135.139 213.813 135.443C213.765 135.553 213.753 135.674 213.777 135.79C213.796 135.837 213.827 135.878 213.867 135.909C213.906 135.94 213.953 135.961 214.003 135.969C214.598 136.145 215.194 136.32 215.79 136.496C215.995 136.591 216.219 136.639 216.445 136.637C216.671 136.636 216.894 136.585 217.098 136.488Z" fill="#00B0FF"/>
<path d="M262.085 175.822C261.809 175.371 261.534 174.92 261.258 174.47C260.988 173.947 260.618 173.483 260.17 173.102C260.072 173.021 259.96 172.959 259.839 172.921C259.718 172.883 259.591 172.87 259.465 172.881C259.339 172.892 259.216 172.928 259.104 172.986C258.991 173.045 258.892 173.125 258.81 173.222L258.796 173.24L258.829 173.497C259.567 174.288 260.07 175.269 260.281 176.329C260.344 176.79 260.322 177.267 260.377 177.73C260.383 177.945 260.431 178.156 260.518 178.352C260.606 178.548 260.731 178.725 260.887 178.873C261.321 179.163 261.83 178.735 262.139 178.214C262.415 177.786 262.539 177.277 262.49 176.77C262.422 176.43 262.284 176.107 262.085 175.822Z" fill="#00B0FF"/>
<path d="M266.406 176.409C266.459 175.987 266.424 175.559 266.305 175.15C266.286 174.597 266.432 174.052 266.726 173.583C267.018 173.141 267.239 172.656 267.381 172.146C267.441 171.914 267.43 171.669 267.35 171.442C267.259 171.238 267.038 171.144 266.911 171.306L267.182 171.481C266.816 171.416 266.44 171.434 266.082 171.534C265.878 171.612 265.695 171.739 265.55 171.902C265.405 172.066 265.302 172.262 265.248 172.474C265.204 172.805 265.13 173.131 265.03 173.449C264.868 173.782 264.555 173.892 264.358 174.184C264.224 174.443 264.156 174.731 264.161 175.022C264.166 175.313 264.243 175.599 264.386 175.853C264.633 176.268 265.026 176.577 265.488 176.719C265.819 176.838 266.255 176.845 266.406 176.409Z" fill="#00B0FF"/>
<path d="M274.101 178.731C274.221 179.043 274.381 179.337 274.578 179.606C274.947 179.977 275.447 179.749 275.894 179.659C276.3 179.595 276.715 179.642 277.096 179.795C277.477 179.948 277.81 180.201 278.059 180.527C277.886 179.663 277.507 178.853 276.956 178.165C276.404 177.477 275.696 176.931 274.89 176.574C273.843 176.211 272.739 176.039 271.631 176.064L271.442 176.113C271.924 177.517 273.439 177.485 274.101 178.731Z" fill="#00B0FF"/>
<path d="M241.509 181.602L241.512 181.608L241.567 181.502L241.509 181.602Z" fill="#00B0FF"/>
<path d="M240.341 183.862C240.087 184.324 239.868 184.805 239.686 185.301C239.446 186.103 239.287 186.928 239.212 187.762C239.152 188.237 239.134 188.843 239.431 189.074C239.517 189.131 239.62 189.154 239.721 189.141C239.823 189.127 239.916 189.076 239.983 188.999C240.148 188.824 240.283 188.624 240.383 188.405C240.967 187.399 241.421 186.322 241.733 185.201C242.058 184.012 241.98 182.749 241.512 181.608C241.122 182.36 240.731 183.111 240.341 183.862Z" fill="#00B0FF"/>
<path d="M229.079 123.66C229.265 123.841 229.499 123.964 229.754 124.014C230.008 124.064 230.272 124.038 230.512 123.94C231.009 123.722 231.464 123.421 231.859 123.049C232.186 122.807 232.464 122.505 232.676 122.158C232.793 121.951 232.869 121.723 232.897 121.486C232.926 121.25 232.908 121.01 232.843 120.781C232.752 120.562 232.606 120.369 232.42 120.221C232.233 120.074 232.012 119.976 231.777 119.938C231.116 119.742 230.455 119.546 229.793 119.349L230.272 118.918C229.779 118.654 229.235 119.144 228.927 119.751C228.73 120.148 228.592 120.571 228.519 121.008C228.414 121.464 228.41 121.938 228.507 122.396C228.604 122.854 228.799 123.285 229.079 123.66Z" fill="#00B0FF"/>
<path d="M240.757 119.74C240.943 119.945 241.201 120.072 241.478 120.095C241.754 120.117 242.029 120.034 242.246 119.861C242.433 119.72 242.588 119.542 242.702 119.338C242.815 119.133 242.885 118.907 242.905 118.674C242.952 118.154 242.694 117.576 242.327 117.531L242.411 117.044C241.703 116.916 240.832 116.89 240.453 117.75C240.325 118.079 240.286 118.436 240.339 118.785C240.393 119.135 240.537 119.464 240.757 119.74Z" fill="#00B0FF"/>
<path d="M171.042 171.873C170.362 171.262 169.825 170.51 169.467 169.669C169.109 168.828 168.94 167.919 168.971 167.006C169.003 166.093 169.234 165.198 169.649 164.383C170.063 163.569 170.651 162.855 171.371 162.293L164.198 141.266L175.374 144.17L180.468 163.691C181.333 164.964 181.702 166.51 181.503 168.036C181.304 169.563 180.553 170.963 179.39 171.972C178.228 172.981 176.735 173.528 175.196 173.51C173.657 173.492 172.178 172.91 171.039 171.874L171.042 171.873Z" fill="#FFB7B7"/>
<path d="M167.837 159.113L178.682 154.28L175.038 117.601L178.431 80.6146L163.953 72.8008L160.885 76.6688V76.7566L159.26 123.526L159.268 123.562L167.837 159.113Z" fill="#E6E7E8"/>
<path d="M267.386 207.524C262.645 205.344 257.532 202.775 252.045 199.818C223.669 184.521 188.776 160.657 153.792 132.623C118.809 104.589 87.9148 75.7336 66.8014 51.3733C56.5166 39.5064 49.1082 29.3437 44.7825 21.1671C40.2025 12.5107 39.2789 6.37631 42.0366 2.93477C47.4095 -3.76981 64.9068 2.26909 78.6392 8.5158L78.1374 9.61937C59.2792 1.04093 46.7944 -1.06366 42.9827 3.69299C38.1278 9.75118 47.1435 26.8404 67.7176 50.5793C88.7845 74.8861 119.622 103.687 154.55 131.677C189.478 159.666 224.307 183.487 252.621 198.751C280.271 213.658 298.915 218.733 303.77 212.675C307.801 207.645 302.302 194.976 288.288 177.002L289.244 176.256C299.427 189.317 310.377 206.368 304.716 213.433C301.958 216.875 295.77 217.31 286.324 214.726C280.939 213.253 274.602 210.842 267.386 207.524Z" fill="#00B0FF"/>
<path d="M99.1638 162.689C82.2587 154.915 66.8097 147.108 53.2786 139.468C35.5924 129.481 22.151 120.319 13.3279 112.239C3.98667 103.683 0.19552 96.6115 2.05975 91.2205C5.69093 80.7183 29.6312 80.4711 49.0752 82.113L48.9431 83.6759C22.2416 81.4207 6.11785 84.282 3.54137 91.7333C0.259929 101.223 18.6695 118.124 54.0496 138.102C90.2772 158.559 140.36 180.244 195.075 199.162C249.788 218.082 302.569 231.965 343.695 238.256C383.859 244.399 408.776 242.48 412.058 232.99C414.782 225.111 402.578 212.067 377.695 196.26L378.536 194.936C396.616 206.422 417.366 222.435 413.539 233.502C411.675 238.893 404.326 242.113 391.695 243.071C379.765 243.975 363.535 242.877 343.458 239.806C302.241 233.501 249.363 219.593 194.562 200.645C160.185 188.757 127.619 175.774 99.1638 162.689Z" fill="#00B0FF"/>
<path d="M124.811 82.8878C129.858 82.8878 133.949 78.7966 133.949 73.7499C133.949 68.7032 129.858 64.6121 124.811 64.6121C119.765 64.6121 115.674 68.7032 115.674 73.7499C115.674 78.7966 119.765 82.8878 124.811 82.8878Z" fill="#E6E6E6"/>
<path d="M304.927 194.421C308.016 194.421 310.52 191.916 310.52 188.827C310.52 185.737 308.016 183.233 304.927 183.233C301.837 183.233 299.333 185.737 299.333 188.827C299.333 191.916 301.837 194.421 304.927 194.421Z" fill="#FF6584"/>
<path d="M31.348 243.523C36.3948 243.523 40.4859 239.431 40.4859 234.385C40.4859 229.338 36.3948 225.247 31.348 225.247C26.3013 225.247 22.2102 229.338 22.2102 234.385C22.2102 239.431 26.3013 243.523 31.348 243.523Z" fill="#E6E6E6"/>
</g>
<defs>
<clipPath id="clip0_445_38">
<rect width="414" height="312.994" fill="white"/>
</clipPath>
</defs>
</svg>
